<?xml version="1.0" encoding="UTF-8" standalone="no"?>
<!-- Created with Inkscape (http://www.inkscape.org/) -->

<svg
   width="14.889402mm"
   height="15.675269mm"
   viewBox="0 0 14.889402 15.675269"
   version="1.1"
   id="svg1"
   inkscape:version="1.4 (86a8ad7, 2024-10-11)"
   sodipodi:docname="Shemvener_logo.svg"
   xmlns:inkscape="http://www.inkscape.org/namespaces/inkscape"
   xmlns:sodipodi="http://sodipodi.sourceforge.net/DTD/sodipodi-0.dtd"
   xmlns="http://www.w3.org/2000/svg"
   xmlns:svg="http://www.w3.org/2000/svg">
  <sodipodi:namedview
     id="namedview1"
     pagecolor="#ffffff"
     bordercolor="#999999"
     borderopacity="1"
     inkscape:showpageshadow="0"
     inkscape:pageopacity="0"
     inkscape:pagecheckerboard="0"
     inkscape:deskcolor="#d1d1d1"
     inkscape:document-units="mm"
     inkscape:window-width="1920"
     inkscape:window-height="991"
     inkscape:window-x="-9"
     inkscape:window-y="-9"
     inkscape:window-maximized="1"
     inkscape:current-layer="layer1" />
  <defs
     id="defs1" />
  <g
     inkscape:label="שכבה 1"
     inkscape:groupmode="layer"
     id="layer1"
     transform="translate(-97.631245,-140.75833)">
    <path
       id="path1"
       style="fill:#0a144f;fill-opacity:1;stroke-width:0.00665621"
       d="m 104.99059,140.75833 c -0.0666,0 -0.13979,0.0399 -0.17307,0.0798 -0.0266,0.0466 -0.0865,0.14646 -0.12646,0.21968 -0.14644,0.2729 -0.61907,1.14487 -0.91195,1.69733 -0.1664,0.31285 -0.43926,0.81869 -0.61232,1.13153 -0.43931,0.79875 -1.1848,2.343 -1.42442,2.94206 -0.54581,1.37784 -0.61908,2.44283 -0.21305,3.24823 0.11981,0.23962 0.32619,0.53919 0.46597,0.66565 0.27956,0.2596 0.71222,0.51249 0.77213,0.45924 0.02,-0.02 -0.0267,-0.23299 -0.10657,-0.46596 -0.20634,-0.639 -0.15304,-1.24471 0.18642,-2.02349 0.33282,-0.77212 1.83045,-3.17502 2.05011,-3.29483 0.24628,-0.13313 0.426,-0.007 0.79875,0.55245 0.43931,0.66563 1.54427,2.92879 1.66408,3.40803 0.12647,0.49922 0.12647,0.93853 0,1.29797 -0.12646,0.35944 -0.12649,0.46597 0.007,0.46597 1.56434,-0.93225 1.25154,-2.6871 0.7189,-4.0537 -0.0599,-0.16641 -0.21972,-0.57907 -0.3595,-0.90522 -0.13978,-0.33282 -0.31947,-0.77878 -0.406,-0.99844 -0.15975,-0.41934 -2.01688,-4.20006 -2.13669,-4.3465 -0.0399,-0.0399 -0.1264,-0.0798 -0.19296,-0.0798 z m 5.57436,11.9774 c -0.20291,-0.004 -0.41096,0.0588 -0.43165,0.17492 -0.10163,0.57026 0.0453,2.39578 0.11389,2.79737 -0.0104,0.076 -0.0311,0.0864 -0.17268,0.0967 -0.10361,0.007 -0.2037,-0.0104 -0.27623,-0.0484 -0.14159,-0.0725 -0.19857,-0.14905 -0.2694,-0.24863 -0.0284,-0.0399 -0.0474,-0.0871 -0.0587,-0.13475 -0.0976,-0.41171 -0.0622,-0.22446 -0.0691,-1.26745 -0.0104,-1.1535 -0.0104,-1.17769 -0.0829,-1.23985 -0.0898,-0.0725 -0.36974,-0.0948 -0.55948,-0.0286 -0.17634,0.0616 -0.19944,0.096 -0.2106,0.18994 -0.0382,0.3215 0.004,0.81063 0.0448,1.21323 0.0579,0.56899 0.008,1.09965 0.28324,1.69227 0.14506,0.30046 0.25551,0.37293 0.71139,0.4489 0.4766,0.0794 1.83042,0.0587 2.11017,-0.0345 0.27283,-0.0863 0.6665,-0.51118 0.7183,-0.7771 0.0104,-0.0484 0.0422,-0.13665 0.0519,-0.2072 0.057,-0.41761 0.023,-0.63547 0.0333,-1.26403 0,0 0.0528,-1.04559 -0.0156,-1.14313 -0.0211,-0.0301 -0.0933,-0.0587 -0.0933,-0.0587 -0.0622,-0.0414 -0.18994,-0.0691 -0.36262,-0.0795 -0.34259,0.0329 -0.30928,-0.003 -0.35618,1.21919 -0.003,0.65964 -0.0241,1.16386 -0.0448,1.25711 -0.0794,0.31428 -0.34545,0.53183 -0.62519,0.51111 l -0.14499,-0.0103 0.0139,-0.20729 c 0.10217,-0.86144 0.0932,-1.75007 0.0932,-2.62128 0,-0.15393 -0.19773,-0.22576 -0.40064,-0.23011 z m -7.78437,0.0713 c -0.25211,0 -0.27289,0.007 -0.37305,0.10706 -0.0967,0.0967 -0.10355,0.11742 -0.0863,0.27974 0.0242,0.20031 0.0898,0.29015 0.24171,0.32468 0.0587,0.0104 0.13473,0.0552 0.16927,0.0966 0.0553,0.0656 0.0587,0.17967 0.0621,1.42296 0,1.20185 0.007,1.35724 0.0553,1.3745 0.0932,0.0345 0.73216,0.0242 0.75634,-0.0138 0.0138,-0.0207 0.0207,-0.75284 0.0173,-1.63006 l -0.003,-1.59213 -0.10013,-0.12432 c -0.12779,-0.16232 -0.37645,-0.24522 -0.73908,-0.24522 z m -4.665816,0.008 c -0.299656,-0.001 -0.346244,0.0138 -0.400639,0.0578 -0.07253,0.0587 -0.08288,0.0967 -0.08288,0.31425 0,0.18994 0.0138,0.25563 0.0587,0.29016 0.03799,0.0276 0.252159,0.0449 0.670045,0.0484 0.442059,0.003 0.628523,0.0207 0.659606,0.0518 0.08289,0.0829 0.11738,0.42475 0.110469,1.12928 -0.01726,1.59902 -0.01719,1.60944 0.03462,1.6716 0.04144,0.0483 0.107005,0.0553 0.431642,0.0484 l 0.383381,-0.0104 v -1.32955 c 0,-1.37108 -0.01726,-1.59216 -0.148498,-1.86154 -0.07252,-0.1485 -0.252106,-0.28323 -0.452413,-0.34194 -0.0967,-0.0276 -0.431702,-0.0517 -0.87031,-0.0621 -0.165771,-0.003 -0.293836,-0.006 -0.393718,-0.006 z m 2.628486,0.007 c -0.0705,0.002 -0.12379,0.007 -0.14538,0.0163 -0.10015,0.0449 -0.11046,0.0864 -0.0863,0.38338 l 0.0207,0.25897 0.24171,0.0311 c 0.37645,0.0483 0.35926,-0.003 0.36272,1.15347 0,1.20876 0.0207,1.14664 -0.4179,1.14664 -0.19686,0 -0.31083,0.0138 -0.3281,0.0414 -0.0138,0.0242 -0.0311,0.15193 -0.038,0.29008 -0.0104,0.23139 -0.007,0.24868 0.0656,0.26939 0.10706,0.0276 1.23295,0.0276 1.37109,0 0.20722,-0.0414 0.21417,-0.0726 0.23489,-1.25369 0.0242,-1.21222 -0.0138,-1.70608 -0.1485,-1.972 -0.0794,-0.16232 -0.17276,-0.22794 -0.42833,-0.30392 -0.12692,-0.0389 -0.49274,-0.066 -0.70417,-0.0611 z m 5.8112,0.0314 c -0.56467,-0.003 -1.12667,0.007 -1.21129,0.0333 -0.0691,0.0242 -0.13472,0.0483 -0.14508,0.0587 -0.0553,0.0587 -0.0898,0.75977 -0.0898,1.9409 -0.003,1.33655 0.007,1.44707 0.11739,1.51959 0.0449,0.0311 2.72145,0.038 2.80088,0.007 0.0276,-0.0138 0.0795,-0.0691 0.11057,-0.12782 0.0483,-0.0933 0.0518,-0.2659 0.0276,-1.50574 -0.0138,-0.77016 -0.038,-1.42981 -0.0553,-1.4609 -0.0173,-0.0311 -0.0311,-0.0863 -0.0311,-0.1208 -0.003,-0.10361 -0.15195,-0.25565 -0.297,-0.29709 -0.095,-0.0276 -0.66222,-0.044 -1.22688,-0.047 z m 0.054,0.66692 c 0.11268,0 0.22487,0.002 0.30948,0.005 0.26593,0.0104 0.31773,0.0241 0.36954,0.0863 0.0587,0.0691 0.0622,0.15887 0.0656,1.04299 0,0.71144 -0.0138,0.99116 -0.0449,1.05333 -0.0414,0.0863 -0.0449,0.0864 -0.6286,0.10365 -0.32464,0.0104 -0.60437,0.0138 -0.62509,0.007 -0.0933,-0.0242 -0.1174,-0.29018 -0.1174,-1.20193 0,-0.51113 0.0103,-0.96352 0.0207,-1.00496 0.0207,-0.0725 0.045,-0.0794 0.33854,-0.0863 0.0863,-0.003 0.19943,-0.005 0.3121,-0.005 z" />
  </g>
</svg>
